<svg t="1617033838790" class="icon" viewBox="0 0 1024 1024" version="1.1" xmlns="http://www.w3.org/2000/svg" p-id="1271" width="200" height="200"><path d="M960.599149 634.226383c0 224.626383-147.499574 384.544681-421.365106 384.544681S117.868936 858.852766 117.868936 634.226383s170.811915-384.544681 421.365107-384.544681 421.365106 159.918298 421.365106 384.544681z" fill="#FF3B61" p-id="1272"></path><path d="M627.036596 217.87234l-87.148936-174.297872-87.148937 174.297872a302.842553 302.842553 0 0 0-188.241702-96.953191s60.786383 56.211064 93.03149 201.09617l114.600851-10.893617h137.041702l114.600851 10.893617c32.027234-144.885106 93.031489-201.09617 93.031489-201.09617A302.842553 302.842553 0 0 0 627.036596 217.87234z" fill="#94EA8B" p-id="1273"></path><path d="M212.861277 905.695319C284.977021 980.425532 395.002553 1024 539.234043 1024c277.351489 0 427.029787-162.097021 427.029787-389.773617s-173.208511-389.773617-427.029787-389.773617c-156.868085 0-283.234043 61.875745-356.221277 162.968511a245.106383 245.106383 0 0 1 178.437447 194.342127c40.088511 212.425532-148.588936 303.931915-148.588936 303.931915z" fill="#FF3B61" p-id="1274"></path><path d="M195.431489 516.793191c15.686809 10.022128 47.714043 12.854468 57.954043-2.614468s-5.664681-43.574468-21.787234-53.378723a30.284255 30.284255 0 0 0-43.574468 12.200851 29.630638 29.630638 0 0 0 7.407659 43.79234zM170.37617 622.897021c17.64766 5.664681 49.457021 0 55.339575-17.211915s-16.77617-40.524255-34.42383-46.188936a30.284255 30.284255 0 0 0-38.12766 21.787234 29.848511 29.848511 0 0 0 17.211915 41.613617zM230.073191 695.448511c-4.357447-17.865532-35.731064-25.926809-53.814468-21.787234a29.848511 29.848511 0 0 0-20.48 39.217021 30.066383 30.066383 0 0 0 36.384681 25.708936c18.083404-4.139574 42.267234-25.273191 37.909787-43.138723zM262.53617 785.429787c-11.982979-13.94383-43.574468-7.189787-57.73617 4.793192a29.630638 29.630638 0 0 0 0 43.574468 30.284255 30.284255 0 0 0 43.574468 6.754042c14.161702-11.329362 26.144681-40.96 14.161702-55.121702z" fill="#ED0C4C" p-id="1275"></path><path d="M191.509787 396.745532c-4.357447 5.446809-8.714894 10.893617-12.636596 16.558298v2.83234a241.184681 241.184681 0 0 1 171.901277 187.805958C388.030638 802.859574 217.218723 892.187234 206.978723 897.634043c5.011064 5.664681 10.022128 11.329362 15.468937 16.558297 33.116596-18.737021 187.588085-118.740426 150.549787-314.607659a262.971915 262.971915 0 0 0-181.48766-202.839149z" fill="#FF789F" p-id="1276"></path><path d="M827.914894 675.404255a371.47234 371.47234 0 0 1-24.18383 93.902979c-23.965957 57.954043-46.406809 71.897872-46.188936 78.651915s39.434894-18.519149 65.361702-68.411915a291.295319 291.295319 0 0 0 30.284255-96.953191c3.268085-27.01617-17.429787-48.803404-25.273191-7.189788zM849.048511 589.998298c-9.804255-1.525106-14.815319 7.189787-16.122554 18.083404s1.742979 20.48 11.765107 21.787234a18.519149 18.519149 0 0 0 18.083404-16.558298 21.787234 21.787234 0 0 0-13.725957-23.31234z" fill="#FFFFFF" p-id="1277"></path><path d="M739.676596 935.325957c-9.804255 5.664681-20.262128 11.111489-30.937873 16.122554a10.893617 10.893617 0 0 0 9.150639 19.826383c11.329362-5.228936 21.787234-11.111489 32.898723-17.211915a10.893617 10.893617 0 0 0-11.111489-18.737022zM784.994043 903.734468l-7.189788 5.882553a10.893617 10.893617 0 0 0 13.725958 16.994043l7.189787-5.882553a10.893617 10.893617 0 1 0-13.725957-16.994043zM699.370213 258.178723c31.809362-106.975319 77.780426-150.985532 78.21617-151.421276a10.893617 10.893617 0 0 0 2.614468-12.418724 10.457872 10.457872 0 0 0-10.893617-6.53617 278.658723 278.658723 0 0 0-137.477447 51.417873 10.893617 10.893617 0 1 0 12.418724 17.865531 268.636596 268.636596 0 0 1 99.349787-43.574468 447.945532 447.945532 0 0 0-65.361702 136.170213 472.782979 472.782979 0 0 0-67.97617-20.044255L503.938723 16.77617a10.893617 10.893617 0 0 0-19.390638 0L403.06383 177.78383A305.021277 305.021277 0 0 0 218.961702 87.148936a10.893617 10.893617 0 0 0-8.279149 18.737021s46.406809 43.574468 78.21617 151.203405a416.789787 416.789787 0 0 0-40.96 20.48 10.893617 10.893617 0 1 0 10.893617 18.954893A469.514894 469.514894 0 0 1 494.35234 239.659574c244.234894 0 413.957447 155.342979 413.957447 377.572766a367.986383 367.986383 0 0 1-97.606808 263.189788 10.893617 10.893617 0 1 0 15.686808 15.251063 389.12 389.12 0 0 0 103.707234-278.440851A378.662128 378.662128 0 0 0 699.370213 258.178723zM244.888511 113.511489a305.021277 305.021277 0 0 1 148.153191 84.316596l-15.904681 31.591489a476.051064 476.051064 0 0 0-67.97617 20.044256 447.509787 447.509787 0 0 0-64.27234-135.952341z m159.26468 110.897022l89.981277-178.437447 89.981277 178.219574a558.842553 558.842553 0 0 0-179.962554 0zM642.723404 975.196596a565.160851 565.160851 0 0 1-149.460425 18.737021c-255.782128 0-413.957447-144.667234-413.957447-377.572766a359.271489 359.271489 0 0 1 132.902128-286.937872 10.893617 10.893617 0 0 0-13.725958-16.994043 380.622979 380.622979 0 0 0-140.745532 303.931915c0 246.195745 167.325957 399.36 435.744681 399.36a588.255319 588.255319 0 0 0 155.125106-19.390638 10.893617 10.893617 0 1 0-5.882553-21.787234z" fill="#604D42" p-id="1278"></path></svg>